<svg width="561" height="401" fill="none" xmlns="http://www.w3.org/2000/svg"><g clip-path="url(#a)"><path fill-rule="evenodd" clip-rule="evenodd" d="M279.458 65.222c-41.581 1.973-83.456 18.357-99.791 49.069-17.942 33.711-35.211 55.007-66.491 70.323-29.864 14.633-93.627 27.533-107.112 73.419-16.794 57.135 45.03 115.573 128.065 146.308 92.791 34.351 245.847 55.416 340.653-7.475 92.693-61.496 68.36-164.059 24.845-220.462C439.294 98.197 336.355 62.516 279.458 65.222" fill="url(#b)" fill-opacity=".7"/></g><g clip-path="url(#c)"><path fill-rule="evenodd" clip-rule="evenodd" d="M216.683 163.774h219.211c11.354 0 20.558 9.198 20.558 20.544v147.801c0 15.129-12.272 27.393-27.411 27.393H49.626c-1.29 0-2.576-.137-3.837-.407l-27.741-5.954a14.636 14.636 0 0 1-11.293-11.484l-1.334-6.782a5.345 5.345 0 0 1 1.334-4.675 11.888 11.888 0 0 0 2.663-4.607l4.864-15.815a44.631 44.631 0 0 1 22.107-26.494l.956-.481 40.718-20.014a15.985 15.985 0 0 0 4.21-3.002l70.022-69.499a91.403 91.403 0 0 1 64.388-26.524Z" fill="#fff"/><path fill-rule="evenodd" clip-rule="evenodd" d="M8.075 329.897c-.11.128-.221.253-.336.377a5.334 5.334 0 0 0-1.331 4.665l1.331 6.767a14.605 14.605 0 0 0 11.268 11.459l27.681 5.94c1.258.27 2.542.407 3.829.407H429.1c15.106 0 27.351-12.238 27.351-27.333v-13.171c0 15.095-12.245 27.333-27.351 27.333H50.517c-1.287 0-2.57-.136-3.829-.406l-27.68-5.941a14.606 14.606 0 0 1-10.933-10.097Z" fill="#EEE" style="mix-blend-mode:multiply"/><path d="m119.991 222.361-37.718 37.436a15.985 15.985 0 0 1-4.21 3.002l-40.718 20.014-.956.481a44.631 44.631 0 0 0-22.107 26.494l-4.864 15.815a11.888 11.888 0 0 1-2.663 4.607 5.345 5.345 0 0 0-1.334 4.675l1.334 6.782a14.636 14.636 0 0 0 11.293 11.484l27.741 5.954c1.261.27 2.547.407 3.837.407h379.415c15.139 0 27.411-12.264 27.411-27.393V184.318c0-11.346-9.204-20.544-20.558-20.544H216.683a91.403 91.403 0 0 0-64.388 26.524L124 218.382M8.516 327.08h447.936M166.634 178.813h288.818m-220.66 0V327.08" stroke="#333" stroke-width="1.5"/><path fill-rule="evenodd" clip-rule="evenodd" d="M416.021 359.512c0-26.157-21.218-47.36-47.392-47.36-26.174 0-47.392 21.203-47.392 47.36h94.784Z" fill="#fff" stroke="#333" stroke-width="1.5"/><path fill-rule="evenodd" clip-rule="evenodd" d="M152.458 359.512c0-26.157-21.218-47.36-47.392-47.36-26.174 0-47.392 21.203-47.392 47.36h94.784Z" fill="#EDEDED" stroke="#333" stroke-width="1.5"/><path d="M441.373 327.08v-19.375h15.079m0 0h-15.079v-34.443h15.079M10.227 322.359l6.538-.592a26.446 26.446 0 0 0 20.907-14.59l1.514-3.07a4.564 4.564 0 0 0-2.076-6.114 4.569 4.569 0 0 0-3.516-.219l-16.66 5.767" stroke="#333" stroke-width="1.5"/><circle cx="105" cy="359" r="38.5" fill="#FFE600" stroke="#fff" stroke-width="3"/><circle cx="105" cy="359" r="40" stroke="#333" stroke-width="1.5"/><circle cx="104.5" cy="359.5" r="26.5" fill="#fff"/><path fill-rule="evenodd" clip-rule="evenodd" d="M130.428 365c.375-1.774.572-3.614.572-5.5 0-14.636-11.864-26.5-26.5-26.5-14.635 0-26.5 11.864-26.5 26.5 0 1.886.197 3.726.572 5.5 2.531-11.996 13.178-21 25.928-21s23.396 9.004 25.928 21Z" fill="#EDEDED"/><circle cx="104.5" cy="359.5" r="26.5" stroke="#333" stroke-width="1.5"/><circle cx="104.5" cy="359.5" r="15.5" stroke="#333" stroke-width="1.5"/><ellipse cx="368.63" cy="359.512" rx="35.222" ry="35.198" fill="#fff" stroke="#333" stroke-width="1.5"/><ellipse cx="368.63" cy="359.512" rx="17.233" ry="17.222" fill="#fff" stroke="#333" stroke-width="1.5"/><mask id="d" fill="#fff"><path fill-rule="evenodd" clip-rule="evenodd" d="M138.793 262.125H97L138.793 219v43.125Z"/></mask><path fill-rule="evenodd" clip-rule="evenodd" d="M138.793 262.125H97L138.793 219v43.125Z" fill="#FFE600" stroke="#fff" stroke-width="6" mask="url(#d)"/><mask id="e" fill="#fff"><path fill-rule="evenodd" clip-rule="evenodd" d="M180.725 200h30.589c5.046 0 9.137 4.088 9.137 9.131v44.167c0 5.043-4.091 9.131-9.137 9.131h-72.521v-43.125l2.551-2.632A54.841 54.841 0 0 1 180.725 200Z"/></mask><path fill-rule="evenodd" clip-rule="evenodd" d="M180.725 200h30.589c5.046 0 9.137 4.088 9.137 9.131v44.167c0 5.043-4.091 9.131-9.137 9.131h-72.521v-43.125l2.551-2.632A54.841 54.841 0 0 1 180.725 200Z" fill="#FFE600" stroke="#fff" stroke-width="6" mask="url(#e)"/><path clip-rule="evenodd" d="M138.793 262.125H97L138.793 219v43.125ZM180.725 200h30.589c5.046 0 9.137 4.088 9.137 9.131v44.167c0 5.043-4.091 9.131-9.137 9.131h-72.521v-43.125l2.551-2.632A54.841 54.841 0 0 1 180.725 200Z" stroke="#333" stroke-width="1.5"/><path d="m203.732 278.896-.001.028-.005.879c-.005 1.023 1.17 1.838 2.638 1.831l10.298-.05c1.484-.007 2.71-.851 2.738-1.885v-.029l.003-.879" stroke="#333" stroke-width="1.5"/><path fill-rule="evenodd" clip-rule="evenodd" d="M147.306 239.552c7.279-2.029 8.097 2.028 8.097 4.252v9.948c.155 5.384-1.246 8.31-4.204 8.778-4.438.702-8.003.546-12.285 0-12-2.03.808-20.546 8.392-22.978Z" fill="#fff" stroke="#333" stroke-width="1.5"/></g><path d="M428.712 309.804v64.881c0 13.909-11.014 25.196-24.586 25.196H259.123c-13.572 0-24.586-11.287-24.586-25.196V22.286C234.537 10.51 243.86 1 255.307 1h152.591c11.491 0 20.771 9.554 20.771 21.286v287.518h.043Z" fill="#fff"/><path d="M259.123 387.75h145.046c13.572 0 24.543-11.288 24.543-25.153v12.132c0 13.909-11.014 25.152-24.543 25.152H259.123c-13.572 0-24.586-11.287-24.586-25.152v-12.132c0 13.865 11.014 25.153 24.586 25.153Z" fill="#EEE" style="mix-blend-mode:multiply"/><path fill="#fff" d="M234.58 43.172h194.218v311.959H234.58z"/><path fill="#fff" d="M234.58 43.172h194.218v311.959H234.58z"/><path fill="#fff" d="M234.58 43.172h194.218v311.959H234.58z"/><path fill="#EEE" style="mix-blend-mode:multiply" d="M252.443 300.191h159.158v36.8H252.443zm0-45.999h159.158v36.8H252.443zm0-45.999h159.158v36.8H252.443zm118.715-81.879c0 22.102-18.037 40.036-40.308 40.036-22.27 0-40.307-17.934-40.307-40.036s18.037-40.036 40.307-40.036c22.271 0 40.308 17.934 40.308 40.036Z"/><path d="M371.158 126.314c0 22.102-18.037 40.036-40.308 40.036-22.27 0-40.307-17.934-40.307-40.036s18.037-40.036 40.307-40.036c22.271 0 40.308 17.934 40.308 40.036Z" stroke="#fff" stroke-width="3"/><ellipse cx="330.554" cy="126.314" rx="41.807" ry="41.536" stroke="#333" stroke-width="1.5"/><path fill-rule="evenodd" clip-rule="evenodd" d="M310.482 142.1a1 1 0 0 1-1-1v-29.37a1 1 0 0 1 1-1h39.745a1 1 0 0 1 1 1v29.37a1 1 0 0 1-1 1h-39.745Z" fill="#fff"/><path stroke="#333" stroke-width="1.5" d="M322.411 136.545h-8.854v-5.692h8.854z"/><path clip-rule="evenodd" d="M310.482 142.1a1 1 0 0 1-1-1v-29.37a1 1 0 0 1 1-1h39.745a1 1 0 0 1 1 1v29.37a1 1 0 0 1-1 1h-39.745Z" stroke="#333" stroke-width="1.5"/><path d="M336.966 110.674v13.747l-3.248-3.258-3.411 3.258-3.241-3.258-3.355 3.258v-13.747" stroke="#333" stroke-width="1.5"/><path d="M378.704 95.954c0 8.154-6.581 14.754-14.684 14.754-8.103 0-14.684-6.6-14.684-14.754 0-8.153 6.581-14.753 14.684-14.753 8.103 0 14.684 6.6 14.684 14.754Z" fill="#FFE600" stroke="#fff" stroke-width="3"/><ellipse cx="363.905" cy="95.954" rx="16.183" ry="16.253" stroke="#333" stroke-width="1.5"/><path d="m356.679 95.928 4.618 4.626 9.813-9.83" stroke="#333" stroke-width="1.5"/><path stroke="#333" stroke-width="1.5" d="M243.243 51.795h177.35v294.717h-177.35zm185.382 303.47H234.624m0-312.004h194.001"/><ellipse cx="347.365" cy="26.419" rx=".867" ry=".889" fill="#333"/><path d="M340.947 26.419h-28.228" stroke="#333" stroke-width="1.5"/><path clip-rule="evenodd" d="M234.537 344.289v30.396c0 13.909 11.014 25.196 24.586 25.196h145.046c13.572 0 24.586-11.287 24.586-25.196V22.286C428.755 10.51 419.433 1 407.985 1H255.351c-11.491 0-20.771 9.554-20.771 21.286V344.29h-.043Z" stroke="#333" stroke-width="1.5"/><path d="M344.589 375.174h-25.366M6.062 399.499H556.25" stroke="#333" stroke-width="1.5"/><path d="m407.232 389.014 7.566-10.013 1.121-6.503 7.846-38.326 5.38-31.996-14.011-6.272-9.303 8.056-1.345 22.386-2.802 52.31 5.548 10.358Z" fill="#fff"/><g style="mix-blend-mode:multiply"><path d="M409.025 312.35c5.38 2.694 11.938 3.61 17.99 2.464l2.13-12.664-14.067-6.303-9.303 8.08-.393 6.188c1.177.86 2.354 1.662 3.643 2.235Z" fill="#EEE"/><path d="M409.025 312.35c5.38 2.694 11.938 3.61 17.99 2.464l2.13-12.664-14.067-6.303-9.303 8.08-.393 6.188c1.177.86 2.354 1.662 3.643 2.235Z" stroke="#333"/></g><path clip-rule="evenodd" d="m407.232 389.014 7.566-10.013 1.121-6.503 7.846-38.326 5.38-31.996-14.011-6.272-9.303 8.056-1.345 22.386-2.802 52.31 5.548 10.358Z" stroke="#333" stroke-width="1.5"/><path clip-rule="evenodd" d="m402.692 359.781-1.008 18.875 5.548 10.358 7.566-10.013 1.121-6.502 2.578-12.718h-15.805Z" stroke="#333" stroke-width="1.5"/><path d="M415.806 381.073h-2.074v-6.791h2.242c1.681 0 2.971 1.669 2.69 3.453l-.112.863c-.28 1.439-1.457 2.475-2.746 2.475Z" fill="#fff"/><path clip-rule="evenodd" d="M415.806 381.073h-2.074v-6.791h2.242c1.681 0 2.971 1.669 2.69 3.453l-.112.863c-.28 1.439-1.457 2.475-2.746 2.475Z" stroke="#333" stroke-width="1.5"/><path d="M401.795 381.073h2.074v-6.791h-2.242c-1.681 0-2.97 1.669-2.69 3.453l.112.863c.28 1.439 1.401 2.475 2.746 2.475Z" fill="#fff"/><path clip-rule="evenodd" d="M401.795 381.073h2.074v-6.791h-2.242c-1.681 0-2.97 1.669-2.69 3.453l.112.863c.28 1.439 1.401 2.475 2.746 2.475Z" stroke="#333" stroke-width="1.5"/><mask id="f" fill="#fff"><path fill-rule="evenodd" clip-rule="evenodd" d="M403.803 372.613a1.94 1.94 0 0 0-1.447 1.785l-.561 2.877c-.056 1.093-.224 2.129-.448 3.165l-3.082 13.063c-.057.288-.057.576-.057.921l.169 2.129c.112 1.611 1.401 2.82 2.97 2.82h15.02a2.895 2.895 0 0 0 2.914-2.82l.168-2.129c.056-.288 0-.633-.056-.921l-3.082-13.063c-.224-1.036-.393-2.072-.449-3.165l-.56-2.877a1.943 1.943 0 0 0-1.39-1.77l-.067-1.395c-.056-.806-.673-1.439-1.457-1.439h-7.062c-.785 0-1.401.633-1.457 1.439l-.066 1.38Z"/></mask><path fill-rule="evenodd" clip-rule="evenodd" d="M403.803 372.613a1.94 1.94 0 0 0-1.447 1.785l-.561 2.877c-.056 1.093-.224 2.129-.448 3.165l-3.082 13.063c-.057.288-.057.576-.057.921l.169 2.129c.112 1.611 1.401 2.82 2.97 2.82h15.02a2.895 2.895 0 0 0 2.914-2.82l.168-2.129c.056-.288 0-.633-.056-.921l-3.082-13.063c-.224-1.036-.393-2.072-.449-3.165l-.56-2.877a1.943 1.943 0 0 0-1.39-1.77l-.067-1.395c-.056-.806-.673-1.439-1.457-1.439h-7.062c-.785 0-1.401.633-1.457 1.439l-.066 1.38Z" fill="#FFE600"/><path d="m402.356 374.398 2.944.573.04-.204.011-.207-2.995-.162Zm1.447-1.785.735 2.909 2.154-.545.107-2.22-2.996-.144Zm-2.008 4.662-2.944-.574-.041.209-.011.211 2.996.154Zm-.448 3.165 2.92.689.006-.027.006-.027-2.932-.635Zm-3.082 13.063-2.92-.689-.014.058-.011.058 2.945.573Zm-.057.921h-3v.118l.01.118 2.99-.236Zm.169 2.129 2.992-.208-.001-.014-.001-.014-2.99.236Zm20.904 0-2.991-.236-.005.066-.002.066 2.998.104Zm.168-2.129-2.945-.574-.032.168-.014.17 2.991.236Zm-.056-.921 2.945-.573-.012-.058-.013-.058-2.92.689Zm-3.082-13.063-2.932.635.005.027.007.027 2.92-.689Zm-.449-3.165 2.996-.154-.01-.211-.041-.209-2.945.574Zm-.56-2.877-2.996.162.012.207.039.204 2.945-.573Zm-1.39-1.77-2.997.145.104 2.147 2.066.592.827-2.884Zm-.067-1.395 2.996-.145-.001-.032-.002-.032-2.993.209Zm-9.976 0-2.993-.209-.002.032-.002.032 2.997.145Zm1.482 3.327a1.06 1.06 0 0 1-.813.962l-1.471-5.817a4.94 4.94 0 0 0-3.707 4.531l5.991.324Zm-.611 3.289.56-2.878-5.889-1.147-.56 2.877 5.889 1.148Zm-.461 3.226c.246-1.137.445-2.342.512-3.646l-5.992-.308c-.045.882-.182 1.749-.384 2.684l5.864 1.27Zm-3.095 13.117 3.083-13.063-5.84-1.378-3.082 13.063 5.839 1.378Zm.024.232.001-.216.003-.127c.003-.055.005-.046-.003-.004l-5.889-1.147c-.121.622-.112 1.208-.112 1.494h6Zm.159 1.893-.168-2.129-5.981.472.168 2.129 5.981-.472Zm-.02.056c-.003 0-.003 0 0 0l.012.004a.046.046 0 0 1 .018.011c.003.003.003.004.001 0l-.004-.011c-.001-.006-.004-.017-.005-.032l-5.985.416c.219 3.146 2.78 5.612 5.963 5.612v-6Zm15.02 0h-15.02v6h15.02v-6Zm-.084.076c-.001.013-.002.007.005-.009a.128.128 0 0 1 .063-.062c.014-.006.021-.005.016-.005v6a5.894 5.894 0 0 0 5.912-5.716l-5.996-.208Zm.175-2.261-.168 2.129 5.982.472.168-2.129-5.982-.472Zm-.01-.111c.011.055.018.092.022.121.005.028.005.037.005.03a1.714 1.714 0 0 1 .029-.378l5.89 1.147c.183-.939-.011-1.834-.056-2.067l-5.89 1.147Zm-3.057-12.948 3.082 13.063 5.84-1.378-3.082-13.063-5.84 1.378Zm-.525-3.7c.067 1.304.267 2.509.513 3.646l5.864-1.269c-.203-.936-.339-1.803-.385-2.685l-5.992.308Zm-.509-2.458.561 2.878 5.889-1.148-.56-2.877-5.89 1.147Zm.728.541a1.058 1.058 0 0 1-.779-.952l5.992-.324a4.943 4.943 0 0 0-3.559-4.491l-1.654 5.767Zm3.823-3.028-.067-1.396-5.993.289.067 1.396 5.993-.289Zm-.07-1.46c-.153-2.187-1.906-4.23-4.45-4.23v6a1.512 1.512 0 0 1-1.536-1.353l5.986-.417Zm-4.45-4.23h-7.062v6h7.062v-6Zm-7.062 0c-2.545 0-4.298 2.043-4.45 4.23l5.986.417a1.513 1.513 0 0 1-1.536 1.353v-6Zm-4.454 4.294-.066 1.381 5.993.288.066-1.38-5.993-.289Z" fill="#fff" mask="url(#f)"/><path fill-rule="evenodd" clip-rule="evenodd" d="m418.965 391.691-.012.018c-.445 1.73-2.657 1.834-2.698 1.737-3.868-3.971-11.153-4.029-15.132.057 0 0-1.57-.288-2.242-2.129l-.103-.049-.513 2.178c-.057.288-.057.576-.057.921l.169 2.129c.112 1.611 1.401 2.82 2.97 2.82h15.02a2.895 2.895 0 0 0 2.914-2.82l.168-2.129c.056-.288 0-.633-.056-.921l-.428-1.812Z" fill="#fff"/><path d="M413.783 372.597c.829.174 1.47.901 1.519 1.801l.56 2.877c.056 1.093.225 2.129.449 3.165l3.082 13.063c.056.288.112.633.056.921l-.168 2.129a2.894 2.894 0 0 1-2.914 2.82h-15.02c-1.569 0-2.858-1.208-2.97-2.82l-.169-2.129c0-.345 0-.633.057-.921l3.082-13.063c.224-1.036.392-2.072.448-3.165l.561-2.877a1.936 1.936 0 0 1 1.584-1.814" stroke="#333" stroke-width="1.5"/><path d="m404.766 380.555-.897-9.322c.056-.806.673-1.439 1.457-1.439h7.062c.784 0 1.401.633 1.457 1.439l-.56 9.322m-6.782.403h4.54m-5.1 2.705h5.66m-6.221 2.705h6.782m6.789 5.341c-.445 1.73-2.657 1.834-2.698 1.737-3.867-3.971-11.153-4.029-15.132.057 0 0-1.569-.288-2.242-2.129" stroke="#333" stroke-width="1.5"/><path d="m450.89 388.622 7.566-10.028 1.121-6.475s2.073-24.183 3.306-39.368c1.233-15.186 3.811-30.658 3.811-30.658l-14.067-6.303-9.303 8.079s-1.121 13.066-.785 22.292c.337 9.226 2.186 39.54 2.859 52.089.616 12.665 5.492 10.372 5.492 10.372Z" fill="#fff"/><path d="M446.631 314.929c4.483 1.547 9.583 1.146 14.123.172 1.401-.287 2.802-.688 4.203-1.146a427.272 427.272 0 0 1 1.681-11.805l-14.067-6.303-9.303 8.08s-.336 3.782-.56 8.71c1.176 1.031 2.521 1.776 3.923 2.292Z" fill="#EEE" style="mix-blend-mode:multiply"/><path clip-rule="evenodd" d="m450.89 388.622 7.566-10.028 1.121-6.475s2.073-24.183 3.306-39.368c1.233-15.186 3.811-30.658 3.811-30.658l-14.067-6.303-9.303 8.079s-1.121 13.066-.785 22.292c.337 9.226 2.186 39.54 2.859 52.089.616 12.665 5.492 10.372 5.492 10.372Z" stroke="#333" stroke-width="1.5"/><path clip-rule="evenodd" d="M444.332 359.397c.448 7.392.841 14.384 1.065 18.968.616 12.607 5.548 10.315 5.548 10.315l7.566-10.029 1.121-6.475s.448-5.444 1.065-12.836h-16.365v.057Z" stroke="#333" stroke-width="1.5"/><mask id="g" fill="#fff"><path fill-rule="evenodd" clip-rule="evenodd" d="M460.698 369.598c-1.457-.745-4.932 1.833-4.932 4.183v4.183l-11.713.688s-2.914 5.845-3.979 10.429c-1.065 4.584-.673 10.257-.673 10.257h39.679s1.121-3.38-3.53-6.991c-4.652-3.61-9.528-3.381-12.835-9.913-1.961-4.355-.616-12.092-2.017-12.836Z"/></mask><path fill-rule="evenodd" clip-rule="evenodd" d="M460.698 369.598c-1.457-.745-4.932 1.833-4.932 4.183v4.183l-11.713.688s-2.914 5.845-3.979 10.429c-1.065 4.584-.673 10.257-.673 10.257h39.679s1.121-3.38-3.53-6.991c-4.652-3.61-9.528-3.381-12.835-9.913-1.961-4.355-.616-12.092-2.017-12.836Z" fill="#FFE600" stroke="#fff" stroke-width="6" mask="url(#g)"/><path d="M475.493 392.29c-1.345-1.031-2.69-1.776-3.979-2.407-.953.516-1.962 1.146-2.802 2.006-2.018 2.063-3.251 4.642-3.251 4.642h-26.172c0 1.661.056 2.807.056 2.807h39.679c.056-.057 1.177-3.438-3.531-7.048Z" fill="#fff"/><path d="M471.514 389.883c-.953.516-1.962 1.146-2.802 2.006-2.018 2.063-3.251 4.642-3.251 4.642h-26.172m20.512-11.232 3.139-2.178m-1.57 4.241 3.194-2.178m-1.569 3.954 3.139-2.12" stroke="#333" stroke-width="1.5"/><path clip-rule="evenodd" d="M460.698 369.598c-1.457-.745-4.932 1.833-4.932 4.183v4.183l-11.713.688s-2.914 5.845-3.979 10.429c-1.065 4.584-.673 10.257-.673 10.257h39.679s1.121-3.38-3.53-6.991c-4.652-3.61-9.528-3.381-12.835-9.913-1.961-4.355-.616-12.092-2.017-12.836Z" stroke="#333" stroke-width="1.5"/><path d="m455.765 380.313-11.657.459c-.784.057-1.457-.688-1.345-1.49l.337-3.037c.168-1.433 1.345-2.464 2.746-2.407l9.919.573v5.902Z" fill="#fff"/><path clip-rule="evenodd" d="m455.765 380.313-11.657.459c-.784.057-1.457-.688-1.345-1.49l.337-3.037c.168-1.433 1.345-2.464 2.746-2.407l9.919.573v5.902Z" stroke="#333" stroke-width="1.5"/><g fill="#fff"><mask id="h"><path fill-rule="evenodd" clip-rule="evenodd" d="m472.859 188.065-38.502-14.99-23.37 13.265.841 2.388-3.643-2.918s-1.738 9.882-1.906 25.8c-.168 15.852 1.569 42.582.953 53.791-.617 11.209-3.811 37.143-3.139 38.071.673.929 6.782 4.51 14.18 5.24 7.397.729 14.179-1.128 14.851-1.857.28-.332 2.746-15.852 5.493-33.23 1.064 17.046 2.129 32.699 2.409 33.23.617 1.127 6.614 4.112 15.805 3.714 9.135-.398 13.562-5.24 13.562-5.24s3.307-69.112 3.811-84.035c.393-14.923-1.345-33.229-1.345-33.229Z"/></mask><path fill-rule="evenodd" clip-rule="evenodd" d="m472.859 188.065-38.502-14.99-23.37 13.265.841 2.388-3.643-2.918s-1.738 9.882-1.906 25.8c-.168 15.852 1.569 42.582.953 53.791-.617 11.209-3.811 37.143-3.139 38.071.673.929 6.782 4.51 14.18 5.24 7.397.729 14.179-1.128 14.851-1.857.28-.332 2.746-15.852 5.493-33.23 1.064 17.046 2.129 32.699 2.409 33.23.617 1.127 6.614 4.112 15.805 3.714 9.135-.398 13.562-5.24 13.562-5.24s3.307-69.112 3.811-84.035c.393-14.923-1.345-33.229-1.345-33.229Z" stroke="#fff" stroke-width="6" mask="url(#h)"/></g><path fill-rule="evenodd" clip-rule="evenodd" d="M474.043 218.712a1.137 1.137 0 0 1-.535.29c-2.914.458-12.274 1.661-23.034.916-8.514-.56-17.649-3.313-24.202-5.289-3.497-1.054-6.259-1.886-7.799-2.046-1.88-.194-4.437-.027-6.821.128-2.106.138-4.077.267-5.329.13-.013-.75-.024-1.488-.032-2.213.227-15.342 1.893-24.818 1.893-24.818l3.642 2.918-.84-2.388 23.37-13.265 38.502 14.99s1.175 12.381 1.375 25.08c-.008.427-.018.851-.029 1.272a715.919 715.919 0 0 1-.161 4.295Z" fill="#EEE" style="mix-blend-mode:multiply"/><path d="M438.56 273.559c1.065 17.046 2.13 32.765 2.41 33.229.616 1.128 6.613 4.113 15.804 3.715 9.135-.398 13.339-4.776 13.563-5.24.127-.263 1.174-22.466 2.148-44.356m-61.499-74.567 23.371-13.265 38.502 14.923s1.737 18.306 1.289 33.23c-.174 5.14-.654 16.655-1.217 29.563m-.161 3.678-.122 2.759.122-2.759Z" stroke="#333" stroke-width="1.5"/><path d="M408.129 185.81s-1.738 9.882-1.906 25.8c-.168 15.852 1.569 42.582.953 53.791-.617 11.209-3.811 37.143-3.139 38.071.617.929 6.782 4.51 14.179 5.24 7.398.729 14.18-1.128 14.852-1.857.617-.73 12.946-81.78 12.946-81.78s3.139 0 7.286-3.383" stroke="#333" stroke-width="1.5"/><path d="M475.823 193.762h-.112s-1.121 3.438-23.202 5.73c-16.925 1.777-34.355-3.61-41.809-7.507" stroke="#333" stroke-width="1.2"/><path d="m410.756 185.968.561-.573 37.885-8.194 26.621 7.621v4.699h-.168s-1.121 3.439-23.202 5.731c-16.869 1.719-34.243-3.61-41.753-7.507.056-1.146.056-1.777.056-1.777Z" fill="#EEE"/><path d="M449.035 193.132v6.647m8.63-7.736v6.704" stroke="#333" stroke-width="1.2"/><path d="m440.235 56.747 7.398 19.484v12.148c0 .745.392 1.433 1.065 1.777l1.849.974 9.192 8.767s-16.645 5.731-16.814 5.96c-.112.229-11.264-3.094-11.264-3.094l-9.304-10.544-1.065-4.355 5.829-4.757c.448-.4.729-.917.729-1.547V62.88l.224-4.069 12.161-2.063Z" fill="#fff"/><path d="M427.85 71.13v-8.25l.224-3.954c.448.745.616 1.433.616 1.433s2.746.802 4.148-.344c.504-.573.728-1.318.84-2.12l6.557-1.147 7.398 19.484v3.725h-.56c-1.121-.115-15.412-3.496-18.327-6.762-.392-.459-.672-1.204-.896-2.063Z" fill="#EEE" style="mix-blend-mode:multiply"/><path clip-rule="evenodd" d="m440.235 56.747 7.398 19.484v12.148c0 .745.392 1.433 1.065 1.777l1.849.974 9.696 8.653s-17.205 5.845-17.318 6.074c-.112.229-11.264-3.094-11.264-3.094l-9.304-10.544-1.065-4.355 5.829-4.757c.448-.4.729-.917.729-1.547V62.88l.224-4.069 12.161-2.063Z" stroke="#333" stroke-width="1.5"/><g fill="#fff"><mask id="i"><path fill-rule="evenodd" clip-rule="evenodd" d="M443.822 99.955c-15.916.63-21.128-13.868-21.128-13.868-6.613 2.75-25.837 17.077-25.837 17.077-2.353 2.235-4.707 5.673-6.949 12.263s-3.138 35.586-2.858 35.987c.28.401 6.557 1.834 11.377 1.948.708.017 1.508.018 2.357.006l1.398 17.873s5.321 15.928 5.617 17.818c.504 3.223.72 11.509.897 18.25.132 5.081.242 9.283.435 9.776.448 1.089 20.008 5.157 41.977 3.209 21.969-1.948 26.509-6.304 26.845-7.106.336-.802.504-34.497.336-48.537-.168-14.039 2.186-34.669 2.186-34.669s2.354-8.538-4.596-24.526c-1.233-2.407-6.445-8.08-13.394-10.659-3.811-1.318-11.937-3.724-11.937-3.724s1.457 8.538-6.726 8.882Z"/></mask><path fill-rule="evenodd" clip-rule="evenodd" d="M443.822 99.955c-15.916.63-21.128-13.868-21.128-13.868-6.613 2.75-25.837 17.077-25.837 17.077-2.353 2.235-4.707 5.673-6.949 12.263s-3.138 35.586-2.858 35.987c.28.401 6.557 1.834 11.377 1.948.708.017 1.508.018 2.357.006l1.398 17.873s5.321 15.928 5.617 17.818c.504 3.223.72 11.509.897 18.25.132 5.081.242 9.283.435 9.776.448 1.089 20.008 5.157 41.977 3.209 21.969-1.948 26.509-6.304 26.845-7.106.336-.802.504-34.497.336-48.537-.168-14.039 2.186-34.669 2.186-34.669s2.354-8.538-4.596-24.526c-1.233-2.407-6.445-8.08-13.394-10.659-3.811-1.318-11.937-3.724-11.937-3.724s1.457 8.538-6.726 8.882Z"/><path d="m422.694 86.087 2.823-1.015-1.066-2.965-2.909 1.21 1.152 2.77Zm21.128 13.868.119 2.997h.007l-.126-2.997Zm-46.965 3.209-1.792-2.406-.144.107-.129.123 2.065 2.176Zm-6.949 12.263-2.84-.966 2.84.966Zm8.519 37.935-.072 3 .072-3Zm2.357.006 2.991-.234-.22-2.805-2.813.039.042 3Zm1.398 17.873-2.991.234.028.368.117.349 2.846-.951Zm5.617 17.818-2.964.463 2.964-.463Zm.897 18.25 2.999-.078-2.999.078Zm.435 9.776-2.794 1.093.01.025.01.024 2.774-1.142Zm41.977 3.209.265 2.988-.265-2.988Zm26.845-7.106-2.767-1.16 2.767 1.16Zm.336-48.537 3-.036-3 .036Zm2.186-34.669-2.892-.797-.062.225-.027.232 2.981.34Zm-4.596-24.526 2.752-1.196-.038-.087-.044-.085-2.67 1.368Zm-13.394-10.659 1.044-2.812-.032-.012-.032-.01-.98 2.834Zm-11.937-3.724.851-2.877-4.619-1.368.81 4.75 2.958-.505Zm-27.854-4.986a272.34 272.34 0 0 0-2.822 1.018l.001.003a.117.117 0 0 1 .003.008l.006.019.02.053.066.168c.054.138.132.327.234.56.204.464.508 1.106.922 1.865a27.675 27.675 0 0 0 3.967 5.518c3.748 4.036 9.83 8.011 18.85 7.653l-.237-5.995c-6.897.273-11.379-2.686-14.216-5.741a21.688 21.688 0 0 1-3.099-4.312 18.568 18.568 0 0 1-.694-1.402 10.483 10.483 0 0 1-.179-.433l-.003-.008.001.003.001.003.001.003s.001.002-2.822 1.017Zm-25.837 17.077 1.793 2.405h.001l.002-.002.01-.007.04-.03.159-.118.615-.455a453.374 453.374 0 0 1 9.534-6.839c2.798-1.95 5.781-3.97 8.461-5.668 2.732-1.73 4.981-3.014 6.374-3.593l-2.304-5.54c-1.915.796-4.548 2.334-7.28 4.064-2.785 1.763-5.848 3.84-8.682 5.815a458.085 458.085 0 0 0-9.664 6.932c-.272.201-.484.357-.628.465l-.165.122-.043.032-.011.008-.003.002-.001.001 1.792 2.406Zm-2.065-2.176c-2.803 2.661-5.375 6.568-7.724 13.473l5.68 1.932c2.135-6.275 4.27-9.245 6.175-11.054l-4.131-4.351Zm-7.724 13.473c-.683 2.007-1.183 5.376-1.574 8.99-.403 3.72-.72 8.03-.956 12.117a381.03 381.03 0 0 0-.474 10.898 149.51 149.51 0 0 0-.064 3.549c-.001.435.003.814.013 1.106.005.14.013.304.028.462a3.38 3.38 0 0 0 .137.705c.032.102.143.459.412.844l4.919-3.436c.265.379.372.726.4.815.043.14.066.251.076.304.021.109.027.184.028.191l-.004-.095c-.006-.18-.01-.472-.009-.881.002-.809.022-1.972.062-3.398.079-2.848.233-6.686.466-10.718.233-4.035.543-8.235.931-11.818.399-3.688.851-6.415 1.289-7.703l-5.68-1.932Zm-2.478 38.671c.291.415.617.662.758.763.173.123.33.211.438.267.215.112.425.196.584.256.329.123.714.24 1.106.347.798.219 1.839.456 2.996.677 2.299.44 5.249.857 7.883.92l.143-5.999c-2.186-.052-4.784-.409-6.898-.814a34.873 34.873 0 0 1-2.54-.571 7.588 7.588 0 0 1-.587-.179c-.049-.019-.007-.006.083.041.045.023.151.08.283.175.1.071.397.291.67.681l-4.919 3.436Zm13.765 3.23c.757.018 1.596.018 2.471.006l-.084-6c-.824.012-1.584.011-2.244-.005l-.143 5.999Zm6.817 14.645-1.397-17.873-5.982.468 1.398 17.873 5.981-.468Zm5.591 17.588c-.116-.74-.592-2.35-1.099-3.998a444.95 444.95 0 0 0-1.931-6.081 1017.65 1017.65 0 0 0-1.867-5.698l-.608-1.835-.171-.511-.044-.135a.954.954 0 0 0-.015-.043l-.001-.002v-.001l-2.845.95-2.846.951v.001l.001.002a.034.034 0 0 1 .003.008l.011.034.044.133.169.506.605 1.825c.503 1.52 1.175 3.564 1.856 5.666.682 2.104 1.37 4.255 1.904 5.992.267.87.491 1.622.656 2.206.082.292.146.53.192.711.05.203.061.268.058.246l5.928-.927Zm.932 18.636c-.173-6.601-.39-15.165-.932-18.636l-5.928.927c.465 2.976.682 10.985.862 17.865l5.998-.156Zm.23 8.761c.131.336.141.578.114.364a10.688 10.688 0 0 1-.046-.51 62.519 62.519 0 0 1-.104-2.045 542.323 542.323 0 0 1-.194-6.57l-5.998.156c.066 2.533.127 4.877.196 6.647.035.883.072 1.654.115 2.248.022.294.047.578.078.825.017.131.071.611.251 1.071l5.588-2.186Zm38.918 1.314c-10.739.952-20.91.434-28.441-.457-3.766-.445-6.835-.979-8.954-1.456-1.069-.241-1.84-.454-2.317-.617-.249-.085-.337-.129-.324-.122.004.002.114.057.264.174.089.069.55.425.834 1.115l-5.548 2.284a3.285 3.285 0 0 0 1.029 1.336c.252.196.5.335.677.426.36.186.76.339 1.131.466.764.26 1.766.528 2.937.791 2.361.532 5.64 1.097 9.566 1.561 7.852.929 18.446 1.471 29.676.475l-.53-5.976Zm24.343-5.278c.178-.424.384-.593.294-.503a3.258 3.258 0 0 1-.454.352c-.565.382-1.618.961-3.412 1.616-3.593 1.312-9.94 2.852-20.771 3.813l.53 5.976c11.138-.988 18.046-2.6 22.299-4.153 2.129-.777 3.647-1.56 4.714-2.281.533-.36.98-.723 1.342-1.085.308-.309.73-.79.992-1.415l-5.534-2.32Zm.104-47.341c.083 6.994.083 18.907.02 29.178-.031 5.135-.078 9.848-.138 13.323-.031 1.74-.064 3.155-.099 4.153a41.88 41.88 0 0 1-.052 1.124c-.009.127-.015.19-.017.207-.001.011.002-.023.013-.083.006-.03.017-.089.036-.164.016-.063.056-.212.133-.397l5.534 2.32c.139-.333.19-.628.2-.684.021-.116.035-.223.044-.3.018-.158.032-.332.043-.499.023-.341.043-.787.062-1.31.037-1.053.071-2.512.102-4.263.06-3.507.108-8.246.139-13.39.063-10.286.063-22.24-.021-29.287l-5.999.072Zm5.185-34.705-2.981-.339v.004l-.002.012-.005.047-.02.18-.075.687a471.838 471.838 0 0 0-1.063 11.234c-.569 6.934-1.125 15.715-1.039 22.88l5.999-.072c-.082-6.874.454-15.427 1.02-22.318a455.969 455.969 0 0 1 1.121-11.748l.019-.171.005-.043.001-.01.001-.002v-.001l-2.981-.34Zm-7.347-23.33c3.345 7.696 4.406 13.492 4.662 17.266.128 1.889.055 3.281-.039 4.162-.047.441-.099.754-.135.939-.017.092-.031.152-.037.18l-.004.017.002-.009.003-.01.001-.005.001-.004c0-.001.001-.003 2.893.794 2.892.798 2.893.796 2.893.794l.001-.004a.019.019 0 0 0 .002-.008.105.105 0 0 0 .005-.019l.013-.047.032-.132a11.4 11.4 0 0 0 .088-.417c.066-.344.143-.823.208-1.432.13-1.22.212-2.962.059-5.205-.304-4.493-1.541-10.96-5.145-19.252l-5.503 2.392Zm-11.687-9.042c3.051 1.132 5.782 2.971 7.906 4.836 2.178 1.912 3.485 3.642 3.862 4.378l5.34-2.736c-.855-1.671-2.771-3.981-5.244-6.151-2.528-2.219-5.878-4.505-9.776-5.952l-2.088 5.625Zm-10.893-6.537-.852 2.876h.001l.004.002c.004 0 .01.003.017.005l.068.02.262.078c.228.068.559.166.967.289.818.245 1.948.585 3.195.967 2.511.767 5.447 1.684 7.294 2.323l1.961-5.67c-1.963-.68-4.996-1.626-7.501-2.391a634.875 634.875 0 0 0-4.47-1.348l-.07-.02-.018-.006-.005-.001h-.001l-.852 2.876Zm-6.6 11.879c2.595-.109 4.703-.891 6.303-2.23 1.575-1.318 2.424-2.981 2.874-4.469.446-1.474.533-2.879.522-3.874a13.883 13.883 0 0 0-.113-1.622 10.835 10.835 0 0 0-.018-.12l-.006-.04a.42.42 0 0 0-.003-.017l-.001-.006-.001-.003c0-.002 0-.003-2.957.502-2.958.504-2.958.503-2.958.502l-.001-.003v-.004l-.001-.007-.001-.004.003.023c.004.03.012.086.02.164.016.159.034.402.038.7.006.618-.054 1.37-.266 2.072-.209.69-.53 1.227-.983 1.605-.428.359-1.206.774-2.703.836l.252 5.995Z" mask="url(#i)"/></g><path d="M396.857 103.164s19.223-14.326 25.837-17.077c0 0 5.212 14.498 21.128 13.868 8.183-.344 6.726-8.882 6.726-8.882s8.126 2.406 11.937 3.724c6.949 2.58 12.161 8.252 13.394 10.659 6.95 15.988 4.596 24.526 4.596 24.526s-2.354 20.63-2.186 34.669c.168 14.04 0 47.735-.336 48.537-.336.802-4.876 5.158-26.845 7.106-21.969 1.948-41.529-2.12-41.977-3.209-.448-1.146-.448-21.501-1.286-27.724-.255-1.892-2.143-7.932-5.663-18.12l-1.389-17.751" stroke="#333" stroke-width="1.5"/><path fill-rule="evenodd" clip-rule="evenodd" d="M494.444 110.379s-.6.361-2.159 2.439c-1.558 2.078-1.341 3.388-3.038 3.343-1.696-.045-1.518-2.597-1.279-3.795.72-2.552 1.763-3.907 2.565-4.856.802-.949 2.386-1.965 3.049-1.965.663 0 1.26.677 1.26.677s1.723-.881 2.65-.881c.928 0 1.591.949 1.591.949s1.723-.542 3.711-.406c2.917.271 5.037 5.76 5.037 5.76" fill="#fff"/><path fill-rule="evenodd" clip-rule="evenodd" d="M522.753 171.044v6.452h-79.62v-50.952h79.62v44.5Z" fill="#fff" stroke="#333" stroke-width="1.5"/><rect x="438.426" y="111.603" width="89.11" height="14.899" rx="2" fill="#fff" stroke="#333" stroke-width="1.5"/><mask id="j" fill="#fff"><path fill-rule="evenodd" clip-rule="evenodd" d="M471.447 111.603h22.438v31.809l-5.61-4.644-5.609 4.644-5.609-4.644-5.61 4.644v-31.809Z"/></mask><path fill-rule="evenodd" clip-rule="evenodd" d="M471.447 111.603h22.438v31.809l-5.61-4.644-5.609 4.644-5.609-4.644-5.61 4.644v-31.809Z" fill="#FFE600" stroke="#fff" stroke-width="6" mask="url(#j)"/><path clip-rule="evenodd" d="M471.447 111.603h22.438v31.809l-5.61-4.644-5.609 4.644-5.609-4.644-5.61 4.644v-31.809Z" stroke="#333" stroke-width="1.5"/><path fill="#FFE600" stroke="#fff" stroke-width="3" d="M465.126 168.042h-12.355v-7.389h12.355z"/><path stroke="#333" stroke-width="1.5" d="M466.626 169.542h-15.355v-10.389h15.355z"/><path d="M506.239 162.031h3.923v-4.012h-3.923v4.012Zm0 6.876h3.923v-4.011h-3.923v4.011Zm9.528-6.876h-3.923v-4.012h3.923v4.012Zm-2.404 4.418h-1.519v-1.553h1.519v1.553Zm2.404 2.458h-1.573v-1.608h1.573v1.608Z" fill-rule="evenodd" clip-rule="evenodd" fill="#fff" stroke="#333" stroke-width="1.5"/><path d="M444.615 185.203c-1.569.172-29.599 1.51-34.027 1.682-4.427.172-14.908-.802-16.645-2.235-1.793-1.432-3.643-6.933-4.091-11.919-.502-5.15-.657-13.086-.671-20.5.086-.027 10.091 1.22 10.091 1.22s11.199-.318 11.148-.318c-.168 8.366-1.906 18.051-1.906 18.051s8.687-.631 13.115-.172c4.427.458 19.727 4.985 21.128 5.501 1.401.516 2.168.473 2.168.473" fill="#fff"/><path d="M389.214 157.266a500.2 500.2 0 0 1-.033-5.035c.057-.018 3.421.389 10.091 1.22l11.148-.318a87.87 87.87 0 0 1-.256 4.996s-7.254.639-10.892.489c-3.346-.138-10.058-1.352-10.058-1.352Z" fill="#EEE"/><path fill-rule="evenodd" clip-rule="evenodd" d="M444.615 177.201s3.742-5.224 4.795-5.493c1.051-.268 3.26-.592 4.417-1.129 1.158-.538 3.156-3.872 4.261-3.711 1.105.162 1.63 3.603.894 5.217-.737 1.614-3.261 3.227-3.261 3.227s1.578.968 2.209 2.205h22.881c0 1.99-3.209 2.635-6.47 3.872-3.261 1.237-10.31 2.205-13.097 2.905-2.788.699-16.629.909-16.629.909" fill="#fff"/><path d="M404.311 172.215s2.074-.745 4.203-1.031m35.756 5.965s4.087-5.172 5.14-5.441c1.051-.268 3.26-.592 4.417-1.129 1.158-.538 3.156-3.872 4.261-3.711 1.105.162 1.63 3.603.894 5.217-.737 1.614-3.261 3.227-3.261 3.227s1.578.968 2.209 2.205h22.881c0 1.99-3.209 2.635-6.47 3.872-3.261 1.237-10.31 2.205-13.097 2.905-2.788.699-16.629.909-16.629.909m-47.758-82.039c-2.353 2.235-4.707 5.673-6.949 12.263s-3.138 35.586-2.858 35.987c.28.401 6.557 1.834 11.377 1.948 4.819.115 13.843-.515 14.123-.802.224-.344.392-16.962.336-20.343-.168-5.673-.448-8.538-.448-8.538" stroke="#333" stroke-width="1.5"/><path d="M387.05 145.282c.28.402 6.557 1.834 11.377 1.949 4.82.114 14.19-.681 14.47-.967" stroke="#333" stroke-width="1.5"/><path fill-rule="evenodd" clip-rule="evenodd" d="M494.237 110.361s-.6.362-2.159 2.44c-1.558 2.078-1.341 3.388-3.038 3.343-1.696-.045-1.518-2.598-1.279-3.795.72-2.552 1.763-3.908 2.565-4.857.802-.948 2.386-1.964 3.049-1.964.663 0 1.26.677 1.26.677s1.723-.881 2.65-.881c.928 0 1.591.949 1.591.949s1.723-.542 3.711-.407" fill="#fff"/><path d="M494.237 110.361s-.6.362-2.159 2.44c-1.558 2.078-1.341 3.388-3.038 3.343-1.696-.045-1.518-2.598-1.279-3.795.72-2.552 1.763-3.908 2.565-4.857.802-.948 2.386-1.964 3.049-1.964.663 0 1.26.677 1.26.677s1.723-.881 2.65-.881c.928 0 1.591.949 1.591.949s1.723-.542 3.711-.407c2.917.271 5.037 5.76 5.037 5.76" stroke="#333" stroke-width="1.5"/><path fill-rule="evenodd" clip-rule="evenodd" d="M498.81 110.361s-.6.362-2.159 2.44c-1.558 2.078-1.341 3.388-3.037 3.343-1.697-.045-1.519-2.598-1.279-3.795.719-2.552 2.558-4.518 2.558-4.518" fill="#fff"/><path d="M498.81 110.361s-.6.362-2.159 2.44c-1.558 2.078-1.341 3.388-3.037 3.343-1.697-.045-1.519-2.598-1.279-3.795.719-2.552 2.558-4.518 2.558-4.518" stroke="#333" stroke-width="1.5"/><path fill-rule="evenodd" clip-rule="evenodd" d="M502.852 110.361s-.599.362-2.158 2.44-1.342 3.388-3.038 3.343c-1.696-.045-1.519-2.598-1.279-3.795.72-2.552 2.558-4.518 2.558-4.518" fill="#fff"/><path d="M502.852 110.361s-.599.362-2.158 2.44-1.342 3.388-3.038 3.343c-1.696-.045-1.519-2.598-1.279-3.795.72-2.552 2.558-4.518 2.558-4.518m-54.32 77.372c-1.569.172-29.599 1.51-34.027 1.682-4.427.172-14.907-.802-16.645-2.235-1.793-1.433-3.642-6.934-4.091-11.919-.504-5.177-.658-13.169-.67-20.616" stroke="#333" stroke-width="1.5"/><path d="m410.425 152.813-.005.32c-.168 8.366-1.905 18.051-1.905 18.051s8.686-.631 13.114-.172c4.427.458 19.727 4.985 21.129 5.501 1.401.516 2.167.473 2.167.473" stroke="#333" stroke-width="1.5"/><path fill-rule="evenodd" clip-rule="evenodd" d="M421.845 54.054c-.593-.457-1.5-.953-2.406-.669-1.542.485-1.542 4.788-.745 6.723.798 1.936 3.032 3.442 3.776 3.442m30.612-9.496c.547-.457 1.382-.953 2.218-.669 1.422.485 1.422 4.788.686 6.723-.735 1.936-2.793 3.442-3.48 3.442" fill="#fff"/><path d="M453.082 54.054c.547-.457 1.382-.953 2.218-.669 1.422.485 1.422 4.788.686 6.723-.735 1.936-2.793 3.442-3.48 3.442m-30.661-9.496c-.593-.457-1.5-.953-2.406-.669-1.542.485-1.542 4.788-.745 6.723.798 1.936 3.032 3.442 3.776 3.442" stroke="#333" stroke-width="1.5"/><path fill-rule="evenodd" clip-rule="evenodd" d="m421.582 51.645.817 12.686a12.102 12.102 0 0 0 3.011 7.157c3.355 3.778 8.996 9.56 12.084 9.56 3.075 0 8.677-5.736 12.034-9.516a12.093 12.093 0 0 0 3.016-7.265l.743-12.622s1.048-18.966-15.894-18.966c-16.943 0-15.811 18.966-15.811 18.966" fill="#fff"/><path clip-rule="evenodd" d="m421.582 51.645.817 12.686a12.102 12.102 0 0 0 3.011 7.157c3.355 3.778 8.996 9.56 12.084 9.56 3.075 0 8.677-5.736 12.034-9.516a12.093 12.093 0 0 0 3.016-7.265l.743-12.622s1.048-18.966-15.894-18.966c-16.943 0-15.811 18.966-15.811 18.966Z" stroke="#333" stroke-width="1.5"/><path fill-rule="evenodd" clip-rule="evenodd" d="M422.198 49.533c.033-.703.057-1.447-.039-2.164-.085.7-.087 1.414-.041 2.11.011.17.034.34.051.508.01-.152.022-.302.029-.454" fill="#EEE" style="mix-blend-mode:multiply"/><mask id="k" style="mask-type:luminance" maskUnits="userSpaceOnUse" x="417" y="43" width="41" height="12"><path fill-rule="evenodd" clip-rule="evenodd" d="M425.547 44.636a175.13 175.13 0 0 0-3.286.373 115.114 115.114 0 0 1-4.568 7.11c-.324 1.118.19 1.985 1.654 2.365 2.381.494 4.313-.437 7.231-1.37 2.555-.816 5.865-1.631 10.894-1.49 5.029-.142 8.34.674 10.896 1.49 2.916.932 4.848 1.864 7.228 1.37 1.464-.382 1.979-1.246 1.655-2.364a114.785 114.785 0 0 1-4.568-7.111 168.14 168.14 0 0 0-3.287-.373c-4.655-.541-7.417-1.166-11.924-1.114-.18-.002-.358-.002-.533-.002-4.198 0-6.922.597-11.392 1.116" fill="#fff"/></mask><g mask="url(#k)"><path fill-rule="evenodd" clip-rule="evenodd" d="M421.053 38.365a56.585 56.585 0 0 0 32.838 0 246.941 246.941 0 0 0 8.1 17.027 74.91 74.91 0 0 1-49.038 0 246.346 246.346 0 0 0 8.1-17.027" fill="#fff"/></g><mask id="l" style="mask-type:luminance" maskUnits="userSpaceOnUse" x="421" y="43" width="33" height="5"><path fill-rule="evenodd" clip-rule="evenodd" d="M425.548 44.636c-1.128.119-2.23.241-3.287.373l-.597 2.436a189.04 189.04 0 0 1 3.408-.345c4.83-.51 7.706-1.124 12.4-1.068 4.694-.055 7.57.559 12.401 1.068.975.092 1.93.184 2.856.284l.552.06-.598-2.435c-.177-.02-.355-.043-.532-.065-.893-.107-1.815-.21-2.755-.308-4.655-.541-7.417-1.166-11.924-1.114-.18-.002-.358-.002-.533-.002-4.198 0-6.922.597-11.391 1.116" fill="#fff"/></mask><g mask="url(#l)"><path fill-rule="evenodd" clip-rule="evenodd" d="M421.053 38.365a56.585 56.585 0 0 0 32.838 0 166.51 166.51 0 0 0 6.079 11.057 68.725 68.725 0 0 1-44.996 0 166.02 166.02 0 0 0 6.079-11.057" fill="#EEE" style="mix-blend-mode:multiply"/></g><path clip-rule="evenodd" d="M422.261 45.009c1.058-.132 2.159-.254 3.286-.372 4.656-.542 7.418-1.168 11.925-1.115 4.506-.052 7.269.573 11.924 1.115 1.127.117 2.229.24 3.287.372a114.636 114.636 0 0 0 4.568 7.11c.325 1.12-.191 1.983-1.654 2.365-4.466.925-7.356-3.165-18.125-2.86-10.769-.304-13.659 3.787-18.125 2.86-1.464-.38-1.978-1.247-1.654-2.364a114.815 114.815 0 0 0 4.568-7.111Z" stroke="#333" stroke-width="1.5"/><mask id="m" style="mask-type:luminance" maskUnits="userSpaceOnUse" x="435" y="22" width="5" height="4"><path fill-rule="evenodd" clip-rule="evenodd" d="M435.721 24.135v.903a17.456 17.456 0 0 1 3.502.002v-.905c0-.973-.788-1.77-1.751-1.77-.964 0-1.751.797-1.751 1.77Z" fill="#fff"/></mask><g mask="url(#m)"><path fill-rule="evenodd" clip-rule="evenodd" d="M433.028 27.762h8.888v-8.12h-8.888v8.12Z" fill="#fff"/></g><path clip-rule="evenodd" d="M437.472 24.95c.591 0 1.175.03 1.751.09v-.905c0-.973-.788-1.77-1.751-1.77-.964 0-1.751.797-1.751 1.77v.904c.575-.059 1.16-.089 1.751-.089Z" stroke="#333" stroke-width="1.5"/><mask id="n" fill="#fff"><path fill-rule="evenodd" clip-rule="evenodd" d="M450.081 46.088c-3.951-1.302-8.507-2.14-12.609-2.14-4.248 0-8.984.9-13.03 2.281a36.55 36.55 0 0 0-2.801 1.083c-.707.31-1.401-.637-1.401-1.416V41.29c0-7.83 5.106-14.453 12.135-16.65a17.03 17.03 0 0 1 2.963-.643l.383-.044a17.178 17.178 0 0 1 6.848.687c7.028 2.197 12.134 8.82 12.134 16.65v4.605c0 .779-.693 1.726-1.401 1.416a36.523 36.523 0 0 0-2.8-1.083l-.421-.14Z"/></mask><path fill-rule="evenodd" clip-rule="evenodd" d="M450.081 46.088c-3.951-1.302-8.507-2.14-12.609-2.14-4.248 0-8.984.9-13.03 2.281a36.55 36.55 0 0 0-2.801 1.083c-.707.31-1.401-.637-1.401-1.416V41.29c0-7.83 5.106-14.453 12.135-16.65a17.03 17.03 0 0 1 2.963-.643l.383-.044a17.178 17.178 0 0 1 6.848.687c7.028 2.197 12.134 8.82 12.134 16.65v4.605c0 .779-.693 1.726-1.401 1.416a36.523 36.523 0 0 0-2.8-1.083l-.421-.14Z" fill="#FFE600" stroke="#fff" stroke-width="6" mask="url(#n)"/><path clip-rule="evenodd" d="M450.081 46.088c-3.951-1.302-8.507-2.14-12.609-2.14-4.248 0-8.984.9-13.03 2.281a36.55 36.55 0 0 0-2.801 1.083c-.707.31-1.401-.637-1.401-1.416V41.29c0-7.83 5.106-14.453 12.135-16.65a17.03 17.03 0 0 1 2.963-.643l.383-.044a17.178 17.178 0 0 1 6.848.687c7.028 2.197 12.134 8.82 12.134 16.65v4.605c0 .779-.693 1.726-1.401 1.416a36.523 36.523 0 0 0-2.8-1.083l-.421-.14Z" stroke="#333" stroke-width="1.5"/><path d="M432.9 64.844c.315 1.86 1.826 2.791 4.533 2.791 2.707 0 4.218-.955 4.534-2.865" stroke="#333" stroke-width="1.5"/><defs><clipPath id="a"><path fill="#fff" transform="translate(0 1)" d="M0 0h561v400H0z"/></clipPath><clipPath id="c"><path fill="#fff" transform="matrix(-1 0 0 1 446 158.5)" d="M0 0h441v242H0z"/></clipPath><linearGradient id="b" x1="137.079" y1="178.003" x2="671.809" y2="486.73" gradientUnits="userSpaceOnUse"><stop stop-color="#EDEDED"/><stop offset="1" stop-color="#fff" stop-opacity="0"/></linearGradient></defs></svg>